<svg xmlns="http://www.w3.org/2000/svg" viewBox="0 0 198.5 50.11"><defs><style>.cls-1{fill:#676767;}.cls-2{fill:#88ba40;}</style></defs><title>Asset 1</title><g id="Layer_2" data-name="Layer 2"><g id="Layer_1-2" data-name="Layer 1"><path class="cls-1" d="M4.13,36.8H8.26a6.62,6.62,0,0,0,2.06-.5,4.42,4.42,0,0,0,1.42-1.21,3.9,3.9,0,0,0,.64-2.42,7.19,7.19,0,0,0-.14-1.35,3,3,0,0,0-.5-1,5,5,0,0,0-.64-.71,4.26,4.26,0,0,0-.78-.5,4.81,4.81,0,0,0-2.06-.5H4.13ZM0,24.34H8.26a9.55,9.55,0,0,1,4.12,1.07,9.23,9.23,0,0,1,1.5,1,7.08,7.08,0,0,1,1.35,1.5A8,8,0,0,1,16.16,30a10.6,10.6,0,0,1,.35,2.71,10.06,10.06,0,0,1-.35,2.7,7.9,7.9,0,0,1-.93,2.07,6.61,6.61,0,0,1-1.35,1.49,9.31,9.31,0,0,1-1.5,1A10.65,10.65,0,0,1,8.26,41H4.13v8.26H0Z"/><path class="cls-1" d="M34.31,38.15a4.16,4.16,0,0,0-.65-1.43,6.52,6.52,0,0,0-1.28-1.49A8.44,8.44,0,0,0,30.53,34a5.09,5.09,0,0,0-2.35-.5,5.07,5.07,0,0,0-2.34.5A6.74,6.74,0,0,0,24,35.23a6.32,6.32,0,0,0-1.29,1.49,4.11,4.11,0,0,0-.64,1.43Zm3.06,5.19a4.55,4.55,0,0,1-.72,2.49,6.43,6.43,0,0,1-2,2,11.09,11.09,0,0,1-2.92,1.35,11.83,11.83,0,0,1-3.56.5,10.17,10.17,0,0,1-3.84-.78,9.34,9.34,0,0,1-3.13-2.14,9.67,9.67,0,0,1-2.14-3.13,9.87,9.87,0,0,1,0-7.69,9.44,9.44,0,0,1,2.14-3.13,10.46,10.46,0,0,1,3.13-2.13,10,10,0,0,1,3.84-.79,10.63,10.63,0,0,1,3.92.79A9.54,9.54,0,0,1,35.44,33a10.24,10.24,0,0,1,2.14,3.63,10.9,10.9,0,0,1,.35,4.91H22a2.82,2.82,0,0,0,.5,1.5,5.3,5.3,0,0,0,1.35,1.49,8.55,8.55,0,0,0,1.92,1.21,6.61,6.61,0,0,0,2.42.5A10.5,10.5,0,0,0,30.32,46,6.53,6.53,0,0,0,32,45.34a3.88,3.88,0,0,0,1.14-.93,1.75,1.75,0,0,0,.42-1.14h3.78Z"/><path class="cls-1" d="M43.49,32.1A9.56,9.56,0,0,1,45.05,31a10.3,10.3,0,0,1,4.77-1v3.42a6.25,6.25,0,0,0-3.06.71,11.81,11.81,0,0,0-1.14.71,5.53,5.53,0,0,0-1,1.14,7.16,7.16,0,0,0-.79,1.64,6.8,6.8,0,0,0-.35,2.14v9.32H40.07V30.6h3.42Z"/><path class="cls-1" d="M71,41.64a6.94,6.94,0,0,1-.78,3.13,8,8,0,0,1-2.07,2.56A10.68,10.68,0,0,1,65.05,49a10.93,10.93,0,0,1-3.77.64,10.17,10.17,0,0,1-3.84-.78,9.48,9.48,0,0,1-3.14-2.14,9.8,9.8,0,0,1-2.13-3.13,9.87,9.87,0,0,1,0-7.69,9.56,9.56,0,0,1,2.13-3.13,9.8,9.8,0,0,1,3.14-2.13,10,10,0,0,1,3.84-.79,11.22,11.22,0,0,1,3.77.64,10.68,10.68,0,0,1,3.06,1.71,8,8,0,0,1,2.07,2.56A7.17,7.17,0,0,1,71,37.93H67.4a3.41,3.41,0,0,0-.5-1.85,5,5,0,0,0-1.28-1.49,5.91,5.91,0,0,0-2-1,8.78,8.78,0,0,0-2.42-.35,5.9,5.9,0,0,0-2.49.5,6.41,6.41,0,0,0-2,1.35,7.94,7.94,0,0,0-1.35,2,6.45,6.45,0,0,0,0,5,6.77,6.77,0,0,0,1.35,2,8,8,0,0,0,2,1.35,6.06,6.06,0,0,0,2.49.5,9.19,9.19,0,0,0,2.42-.36,5.73,5.73,0,0,0,2-1,4.1,4.1,0,0,0,1.28-1.49,3.93,3.93,0,0,0,.5-1.85H71Z"/><path class="cls-1" d="M75.66,39.86a6.11,6.11,0,0,0,.49,2.49,6.69,6.69,0,0,0,1.36,2,7.44,7.44,0,0,0,2,1.35,6.45,6.45,0,0,0,5,0,6.36,6.36,0,0,0,2-1.35,7.72,7.72,0,0,0,1.36-2,6.12,6.12,0,0,0,.5-2.49,6.06,6.06,0,0,0-.5-2.49,6.61,6.61,0,0,0-1.36-2,6,6,0,0,0-2-1.35,6.45,6.45,0,0,0-5,0,6.66,6.66,0,0,0-2,1.35,7.61,7.61,0,0,0-1.36,2A6,6,0,0,0,75.66,39.86Zm-3.42,0A10,10,0,0,1,73,36a9.44,9.44,0,0,1,2.14-3.13,10.64,10.64,0,0,1,3.13-2.13,9.75,9.75,0,0,1,7.69,0,9.41,9.41,0,0,1,3.13,2.13A10.77,10.77,0,0,1,91.24,36,9.65,9.65,0,0,1,92,39.79a10,10,0,0,1-.79,3.84,9.56,9.56,0,0,1-2.13,3.13A10.61,10.61,0,0,1,86,48.9a9.87,9.87,0,0,1-7.69,0,9.34,9.34,0,0,1-3.13-2.14A10.9,10.9,0,0,1,73,43.63,8,8,0,0,1,72.24,39.86Z"/><rect class="cls-1" x="94.66" y="22.28" width="3.42" height="26.9"/><path class="cls-1" d="M103,39.86a5.59,5.59,0,0,0,.57,2.34A7.94,7.94,0,0,0,105,44.27,7,7,0,0,0,107,45.69a5.13,5.13,0,0,0,4.7,0,8.06,8.06,0,0,0,2.06-1.42,7.14,7.14,0,0,0,1.43-2.07,5.11,5.11,0,0,0,0-4.69,8.23,8.23,0,0,0-1.43-2.07A7.06,7.06,0,0,0,111.74,34a5.13,5.13,0,0,0-4.7,0A8.32,8.32,0,0,0,105,35.44a6.92,6.92,0,0,0-1.42,2.07A4.71,4.71,0,0,0,103,39.86Zm12.74,9.32V47.33A8.54,8.54,0,0,1,115,48a7.32,7.32,0,0,1-1.35.78,11.31,11.31,0,0,1-1.92.71,8.11,8.11,0,0,1-2.42.29,10.17,10.17,0,0,1-3.84-.78,9.34,9.34,0,0,1-3.13-2.14,10.9,10.9,0,0,1-2.14-3.13,9.87,9.87,0,0,1,0-7.69,9.44,9.44,0,0,1,2.14-3.13,10.64,10.64,0,0,1,3.13-2.13,10,10,0,0,1,3.84-.79,11.38,11.38,0,0,1,2.35.22,12,12,0,0,1,1.78.57,7.79,7.79,0,0,1,1.35.78c.36.28.71.57,1,.78V30.6h3.41V49.25h-3.48Z"/><polygon class="cls-1" points="123.84 34.02 120.42 34.02 120.42 30.6 123.84 30.6 123.84 26.48 127.26 26.48 127.26 30.6 130.74 30.6 130.74 34.02 127.26 34.02 127.26 49.18 123.84 49.18 123.84 34.02"/><path class="cls-1" d="M148.54,38.15a4.11,4.11,0,0,0-.64-1.43,7.05,7.05,0,0,0-1.28-1.49A8.28,8.28,0,0,0,144.76,34a5.75,5.75,0,0,0-4.69,0,7.05,7.05,0,0,0-1.85,1.21,6,6,0,0,0-1.28,1.49,3.93,3.93,0,0,0-.64,1.43Zm3.06,5.19a4.62,4.62,0,0,1-.71,2.49,6.57,6.57,0,0,1-2,2A11.09,11.09,0,0,1,146,49.18a11.72,11.72,0,0,1-3.55.5,10.18,10.18,0,0,1-3.85-.78,9.44,9.44,0,0,1-3.13-2.14,9.8,9.8,0,0,1-2.13-3.13,9.75,9.75,0,0,1,0-7.69,9.41,9.41,0,0,1,2.13-3.13,10.58,10.58,0,0,1,3.13-2.13,10,10,0,0,1,3.85-.79,10.62,10.62,0,0,1,3.91.79A9.67,9.67,0,0,1,149.68,33a10.37,10.37,0,0,1,2.13,3.63,11,11,0,0,1,.36,4.91h-15.8a2.89,2.89,0,0,0,.49,1.5,5.34,5.34,0,0,0,1.36,1.49,8.55,8.55,0,0,0,1.92,1.21,6.53,6.53,0,0,0,2.42.5,9.79,9.79,0,0,0,2.06-.21,6.53,6.53,0,0,0,1.71-.64,3.88,3.88,0,0,0,1.14-.93,1.76,1.76,0,0,0,.43-1.14h3.7Z"/><polygon class="cls-1" points="194.8 18.22 194.8 18.65 193.66 18.65 193.66 21.64 193.16 21.64 193.16 18.65 192.02 18.65 192.02 18.22 194.8 18.22"/><path class="cls-1" d="M195.23,18.22h.64l1,2.92,1-2.92h.64v3.42h-.43V18.79l-1,2.92h-.43l-1-2.92v2.78h-.42V18.22Z"/><path class="cls-2" d="M161.78,20.92H168a1.08,1.08,0,0,0,1.07-1,1,1,0,0,0,1.06,1h8.33a1.09,1.09,0,0,0,1.07-1.06V18.79h-2.64a1.07,1.07,0,0,1,0-2.14h2.64V14.59h-5.2a1.07,1.07,0,1,1,0-2.13h5.2V10.39h-2.64a1.07,1.07,0,0,1,0-2.13h2.64v-2h-5.2A1.1,1.1,0,0,1,173.3,5.2a1.1,1.1,0,0,1,1.07-1.07h5.2V1.07A1.1,1.1,0,0,0,178.5,0h-8.4A1.1,1.1,0,0,0,169,1.07V19.79a.89.89,0,0,0-.28-.64l-4.63-6.48-5.62,4.7,2.42,3.2A1.57,1.57,0,0,0,161.78,20.92Z"/><path class="cls-2" d="M185.76,8.47a5.52,5.52,0,0,1,.85-1.21,6.32,6.32,0,0,0,1.78-4.13,5.87,5.87,0,0,1,2.42,5.62c-.14,1.43-.92,3.14-2.49,3.14l-1.78-.57a2.42,2.42,0,0,1-.78-.93A2.3,2.3,0,0,1,185.76,8.47Zm-5.2,12.45h4.2a1,1,0,0,0,.93-.56l3.2-6.48c2.14-.29,3.7-2.21,4-4.91a7.8,7.8,0,0,0-6-8.76,1,1,0,0,0-1.07.43,1.09,1.09,0,0,0,0,1.21c1.07,1.71.43,2.71-.71,4.2a11.29,11.29,0,0,0-1.14,1.71,4.35,4.35,0,0,0-.07,3.41,5.15,5.15,0,0,0,.85,1.29l-4.13,5.83-.28.36-.5.71a1,1,0,0,0-.07,1.07A.84.84,0,0,0,180.56,20.92Z"/><path class="cls-2" d="M158.07,8.54a1.09,1.09,0,0,0-1.13,0,1,1,0,0,0-.43,1.07l1,5.83,5.06-4.19Z"/><path class="cls-2" d="M188.89,37.65h-1V27.19H189a5.23,5.23,0,1,1-.07,10.46Zm-5,6.55a1.53,1.53,0,0,1-.71.78,4.45,4.45,0,0,1-1,.5,3.36,3.36,0,0,1-1.21.14,5.21,5.21,0,0,1-1.56-.21,1.38,1.38,0,0,1-.86-.64,1.42,1.42,0,0,1,.07-.5,1.18,1.18,0,0,1,.29-.5h.21a2.22,2.22,0,0,1,.57.14l.64.22a2,2,0,0,0,.64.07h.29a.9.9,0,0,0,.64-.29,1.06,1.06,0,0,0,.21-.71,1.37,1.37,0,0,0-.14-.57,1.45,1.45,0,0,0-.57-.5c-.07,0-.07-.07-.14-.14l-.07-.07a3.54,3.54,0,0,1-.65-.5,3.48,3.48,0,0,1-.56-.5l-.43-.35a2.49,2.49,0,0,1-.86-1.78,2.18,2.18,0,0,1,.79-1.71,3.16,3.16,0,0,1,2.13-.57h.5a2.64,2.64,0,0,1,1.28.36,1.43,1.43,0,0,1,.5.5,1,1,0,0,1-.14.42,1.12,1.12,0,0,1-.29.5c-.07,0-.07,0-.14-.07a.26.26,0,0,1-.21-.07c-.07,0-.22-.07-.29-.07s-.21-.07-.28-.07a1.62,1.62,0,0,0-.79-.15,1.48,1.48,0,0,0-.78.22.64.64,0,0,0-.28.57.89.89,0,0,0,.07.42,1.7,1.7,0,0,0,.35.43,2.82,2.82,0,0,1,.36.29c.14.07.28.21.43.28a4.21,4.21,0,0,0,.57.43c.21.14.35.28.49.35a3.85,3.85,0,0,1,.86,1,2,2,0,0,1,.28,1.07A3,3,0,0,1,183.91,44.2Zm-7,1.14a.52.52,0,0,1-.35.07,1.42,1.42,0,0,0-.5.07h-.71c-.07-.07-.07-.21-.14-.29s-.07-.21-.07-.35V39.93a3.58,3.58,0,0,0-.22-1.43.82.82,0,0,0-.78-.42,1.42,1.42,0,0,0-.78.21,3.52,3.52,0,0,0-.57.43v6.33a.34.34,0,0,1-.36.36h-1.64c0-.43.08-1,.08-1.57v-4a3.58,3.58,0,0,0-.22-1.43.82.82,0,0,0-.78-.42,1.6,1.6,0,0,0-.78.21,1.72,1.72,0,0,0-.57.5v5.83a.54.54,0,0,1-.07.36.37.37,0,0,1-.15.28c-.07.08-.14.08-.21.15s-.21.07-.29.07h-1.13V38.72a2.34,2.34,0,0,0-.08-.78c-.07-.22-.07-.43-.14-.57a1.78,1.78,0,0,1,.79-.43.24.24,0,0,0,.14-.07h.07a1.08,1.08,0,0,1,.43.14.55.55,0,0,1,.28.28,3.94,3.94,0,0,1,1.07-.56,3.14,3.14,0,0,1,1.21-.22h.35a3.66,3.66,0,0,1,1,.29,1.5,1.5,0,0,1,.64.49,4.06,4.06,0,0,1,.57-.35,2.94,2.94,0,0,1,.57-.21,2.83,2.83,0,0,1,1.14-.22h.35a3.52,3.52,0,0,1,1.07.29,1.33,1.33,0,0,1,.64.64,3.26,3.26,0,0,1,.36,1,7.09,7.09,0,0,1,.07,1.28V44a4.78,4.78,0,0,0,.07,1.07C177.08,45.27,177,45.34,176.93,45.34Zm-11.81-.5v.35c-.07.15-.21.22-.43.36a2.08,2.08,0,0,1-.71.14.52.52,0,0,1-.35-.07c-.15-.07-.22-.14-.36-.21a2,2,0,0,1-.36-.43,1.29,1.29,0,0,1-.14-.5V33.24a.9.9,0,0,1,.64-.5,5.51,5.51,0,0,1,1.14-.07c.07.21.07.43.14.71V43.7a1,1,0,0,0,.07.43c0,.07.08.21.15.21a.52.52,0,0,0,.35.07C165.12,44.48,165.12,44.63,165.12,44.84Zm23.77-19.79h-1V24a1.1,1.1,0,0,0-1.07-1.07H159.64A1.1,1.1,0,0,0,158.57,24V44.91a5.23,5.23,0,0,0,5.2,5.2h18.79a5.17,5.17,0,0,0,5.19-5.2v-5.2h1.07a7.32,7.32,0,0,0,7.33-7.33A7.22,7.22,0,0,0,188.89,25.05Z"/></g></g></svg>